<svg width="160" height="160" viewBox="0 0 160 160" fill="none" xmlns="http://www.w3.org/2000/svg">
<circle cx="80" cy="80" r="80" fill="white"/>
<path d="M18.2 55.36V52.96H32.92L55.96 101.92L53.32 108H42.92L18.2 55.36ZM63.4 84.88H63.08L57.72 97.84L50.84 83.12L63.4 52.96H78.6V108H63.4V84.88ZM18.2 63.28L32.92 94.64V108H18.2V63.28ZM94.1812 52.96H110.181V108H94.1812V52.96ZM113.541 95.76H114.181C116.795 95.76 118.635 95.6533 119.701 95.44C120.821 95.1733 121.648 94.5867 122.181 93.68C122.768 92.72 123.088 91.2 123.141 89.12C123.248 86.4533 123.301 83.5733 123.301 80.48C123.301 77.44 123.248 74.5333 123.141 71.76C123.035 69.68 122.688 68.16 122.101 67.2C121.568 66.24 120.688 65.6533 119.461 65.44C118.235 65.28 116.475 65.2 114.181 65.2H113.541V52.96H114.181C118.448 52.96 121.995 53.1467 124.821 53.52C127.701 53.8933 130.075 54.48 131.941 55.28C133.755 56.08 135.195 57.1733 136.261 58.56C137.328 59.9467 138.101 61.68 138.581 63.76C139.008 65.6267 139.275 67.84 139.381 70.4C139.541 72.9067 139.621 76.2667 139.621 80.48C139.621 84.7467 139.541 88.1333 139.381 90.64C139.275 93.1467 139.008 95.3333 138.581 97.2C138.101 99.28 137.328 101.013 136.261 102.4C135.195 103.787 133.755 104.88 131.941 105.68C130.075 106.48 127.701 107.067 124.821 107.44C121.995 107.813 118.448 108 114.181 108H113.541V95.76Z" fill="url(#paint0_linear)"/>
<defs>
<linearGradient id="paint0_linear" x1="80.5" y1="53" x2="80.5" y2="108" gradientUnits="userSpaceOnUse">
<stop stop-color="#00CDED"/>
<stop offset="1" stop-color="#008BA0"/>
</linearGradient>
</defs>
</svg>
