<svg width="260" height="26" viewBox="0 0 166 16" fill="none" xmlns="http://www.w3.org/2000/svg">
<path d="M0.3 1.84V1.24H3.98L9.74 13.48L9.08 15H6.48L0.3 1.84ZM11.6 9.22H11.52L10.18 12.46L8.46 8.78L11.6 1.24H15.4V15H11.6V9.22ZM0.3 3.82L3.98 11.66V15H0.3V3.82ZM24.8353 9.92C24.8353 9.24 24.8286 8.78667 24.8153 8.56C24.802 8.24 24.762 8 24.6953 7.84C24.6286 7.66667 24.522 7.56 24.3753 7.52C24.2153 7.48 23.9953 7.46 23.7153 7.46H23.4353V4.64H23.7153C24.8753 4.64 25.782 4.73333 26.4353 4.92C27.0886 5.09333 27.5753 5.38667 27.8953 5.8C28.1886 6.17333 28.3753 6.67333 28.4553 7.3C28.5486 7.91333 28.5953 8.78667 28.5953 9.92C28.5953 10.9733 28.562 11.7933 28.4953 12.38C28.442 12.9533 28.302 13.4267 28.0753 13.8C27.822 14.2133 27.442 14.5267 26.9353 14.74C26.4286 14.94 25.7286 15.0667 24.8353 15.12V9.92ZM23.7153 15.16C22.5553 15.16 21.6486 15.0733 20.9953 14.9C20.342 14.7267 19.8553 14.4333 19.5353 14.02C19.242 13.6467 19.0486 13.1533 18.9553 12.54C18.8753 11.9267 18.8353 11.0533 18.8353 9.92C18.8353 8.88 18.8686 8.06667 18.9353 7.48C19.002 6.89333 19.1486 6.40667 19.3753 6.02C19.6153 5.59333 19.9886 5.28 20.4953 5.08C21.002 4.86667 21.702 4.73333 22.5953 4.68V9.92C22.5953 10.6 22.602 11.0467 22.6153 11.26C22.6286 11.58 22.6686 11.82 22.7353 11.98C22.802 12.14 22.9153 12.24 23.0753 12.28C23.2086 12.32 23.422 12.34 23.7153 12.34H23.9953V15.16H23.7153ZM30.7453 4.8H34.5253L37.2653 15H33.7253L30.7453 4.8ZM36.6853 9.6L37.7253 4.8H41.3653L38.3853 15H38.1453L36.6853 9.6ZM44.0009 0.139999H47.7009V3.02H44.0009V0.139999ZM44.0009 4.8H47.7009V15H44.0009V4.8ZM55.4975 8.9H56.8975C56.8975 8.15333 56.8242 7.67333 56.6775 7.46C56.5975 7.34 56.4908 7.26667 56.3575 7.24C56.2242 7.2 56.0308 7.18 55.7775 7.18H55.4975V4.64H55.7775C56.9242 4.64 57.8042 4.73333 58.4175 4.92C59.0442 5.10667 59.5042 5.41333 59.7975 5.84C60.0642 6.21333 60.2242 6.69333 60.2775 7.28C60.3442 7.86667 60.3775 8.74667 60.3775 9.92V10.72H55.4975V8.9ZM56.1775 15.16C54.9508 15.16 53.9842 15.06 53.2775 14.86C52.5842 14.6467 52.0642 14.3133 51.7175 13.86C51.4108 13.46 51.2108 12.9667 51.1175 12.38C51.0242 11.78 50.9775 10.96 50.9775 9.92C50.9775 8.96 51.0108 8.2 51.0775 7.64C51.1442 7.06667 51.2842 6.58 51.4975 6.18C51.7375 5.74 52.1042 5.4 52.5975 5.16C53.1042 4.90667 53.7908 4.74667 54.6575 4.68V10.72C54.6575 11.1733 54.6775 11.5 54.7175 11.7C54.7575 11.8867 54.8508 12.0267 54.9975 12.12C55.1575 12.2267 55.4042 12.2867 55.7375 12.3C56.1642 12.3267 56.6175 12.34 57.0975 12.34C57.9508 12.34 58.5708 12.32 58.9575 12.28L59.9775 12.2V14.78C59.4442 14.94 58.7108 15.0467 57.7775 15.1C57.3242 15.14 56.7908 15.16 56.1775 15.16ZM70.3656 1.24H74.3656V15H70.3656V1.24ZM75.2056 11.94H75.3656C76.019 11.94 76.479 11.9133 76.7456 11.86C77.0256 11.7933 77.2323 11.6467 77.3656 11.42C77.5123 11.18 77.5923 10.8 77.6056 10.28C77.6323 9.61333 77.6456 8.89333 77.6456 8.12C77.6456 7.36 77.6323 6.63333 77.6056 5.94C77.579 5.42 77.4923 5.04 77.3456 4.8C77.2123 4.56 76.9923 4.41333 76.6856 4.36C76.379 4.32 75.939 4.3 75.3656 4.3H75.2056V1.24H75.3656C76.4323 1.24 77.319 1.28667 78.0256 1.38C78.7456 1.47333 79.339 1.62 79.8056 1.82C80.259 2.02 80.619 2.29333 80.8856 2.64C81.1523 2.98667 81.3456 3.42 81.4656 3.94C81.5723 4.40667 81.639 4.96 81.6656 5.6C81.7056 6.22667 81.7256 7.06667 81.7256 8.12C81.7256 9.18667 81.7056 10.0333 81.6656 10.66C81.639 11.2867 81.5723 11.8333 81.4656 12.3C81.3456 12.82 81.1523 13.2533 80.8856 13.6C80.619 13.9467 80.259 14.22 79.8056 14.42C79.339 14.62 78.7456 14.7667 78.0256 14.86C77.319 14.9533 76.4323 15 75.3656 15H75.2056V11.94ZM90.3194 8.68C90.3194 8.33333 90.306 8.08667 90.2794 7.94C90.2527 7.79333 90.1727 7.68667 90.0394 7.62C89.9194 7.55333 89.6927 7.50667 89.3594 7.48C89.1594 7.46667 88.726 7.46 88.0594 7.46C87.4194 7.46 86.826 7.48667 86.2794 7.54L85.2194 7.6V5C86.4727 4.76 87.826 4.64 89.2794 4.64C90.3994 4.64 91.2727 4.72 91.8994 4.88C92.5394 5.04 93.0194 5.29333 93.3394 5.64C93.6194 5.96 93.7994 6.36667 93.8794 6.86C93.9727 7.35333 94.0194 8.04 94.0194 8.92V15H90.3194V8.68ZM87.3594 15.14C86.4394 15.14 85.7594 14.8867 85.3194 14.38C84.8794 13.86 84.6594 13.08 84.6594 12.04C84.6594 11.4 84.706 10.8867 84.7994 10.5C84.8927 10.1 85.0527 9.78667 85.2794 9.56C85.506 9.32 85.8194 9.15333 86.2194 9.06C86.6194 8.95333 87.146 8.9 87.7994 8.9L89.4794 8.94V10.72H89.2794C88.9727 10.72 88.7727 10.7267 88.6794 10.74C88.4127 10.7533 88.2727 10.88 88.2594 11.12C88.246 11.2 88.2394 11.3667 88.2394 11.62C88.2394 11.82 88.246 11.9733 88.2594 12.08C88.286 12.1867 88.326 12.2733 88.3794 12.34C88.446 12.4333 88.546 12.4867 88.6794 12.5C88.866 12.5267 89.066 12.54 89.2794 12.54H89.4794V14.58C89.186 14.8067 88.8727 14.9533 88.5394 15.02C88.2194 15.1 87.826 15.14 87.3594 15.14ZM96.6741 4.8H98.5541V1.84H102.254V4.8H104.494V7.62H96.6741V4.8ZM98.5541 8.42H102.254V15H98.5541V8.42ZM112.314 8.68C112.314 8.33333 112.301 8.08667 112.274 7.94C112.247 7.79333 112.167 7.68667 112.034 7.62C111.914 7.55333 111.687 7.50667 111.354 7.48C111.154 7.46667 110.721 7.46 110.054 7.46C109.414 7.46 108.821 7.48667 108.274 7.54L107.214 7.6V5C108.467 4.76 109.821 4.64 111.274 4.64C112.394 4.64 113.267 4.72 113.894 4.88C114.534 5.04 115.014 5.29333 115.334 5.64C115.614 5.96 115.794 6.36667 115.874 6.86C115.967 7.35333 116.014 8.04 116.014 8.92V15H112.314V8.68ZM109.354 15.14C108.434 15.14 107.754 14.8867 107.314 14.38C106.874 13.86 106.654 13.08 106.654 12.04C106.654 11.4 106.701 10.8867 106.794 10.5C106.887 10.1 107.047 9.78667 107.274 9.56C107.501 9.32 107.814 9.15333 108.214 9.06C108.614 8.95333 109.141 8.9 109.794 8.9L111.474 8.94V10.72H111.274C110.967 10.72 110.767 10.7267 110.674 10.74C110.407 10.7533 110.267 10.88 110.254 11.12C110.241 11.2 110.234 11.3667 110.234 11.62C110.234 11.82 110.241 11.9733 110.254 12.08C110.281 12.1867 110.321 12.2733 110.374 12.34C110.441 12.4333 110.541 12.4867 110.674 12.5C110.861 12.5267 111.061 12.54 111.274 12.54H111.474V14.58C111.181 14.8067 110.867 14.9533 110.534 15.02C110.214 15.1 109.821 15.14 109.354 15.14ZM119.546 0.139999H123.246V15H119.546V0.139999ZM126.126 15.14C125.686 15.14 125.3 15.1 124.966 15.02C124.646 14.94 124.353 14.8 124.086 14.6V12.06H124.306C124.6 12.06 124.806 12.0467 124.926 12.02C125.06 11.98 125.16 11.9 125.226 11.78C125.293 11.6333 125.333 11.42 125.346 11.14C125.36 10.94 125.366 10.5267 125.366 9.9C125.366 9.27333 125.36 8.86 125.346 8.66C125.333 8.36667 125.293 8.15333 125.226 8.02C125.173 7.88667 125.073 7.80667 124.926 7.78C124.74 7.75333 124.533 7.74 124.306 7.74H124.086V5.2C124.353 4.98667 124.64 4.84667 124.946 4.78C125.253 4.7 125.646 4.66 126.126 4.66C127.193 4.66 127.96 5.04667 128.426 5.82C128.893 6.62 129.126 7.99333 129.126 9.94C129.126 11.9 128.893 13.2667 128.426 14.04C128.186 14.4267 127.873 14.7067 127.486 14.88C127.113 15.0533 126.66 15.14 126.126 15.14ZM137.629 8.68C137.629 8.33333 137.615 8.08667 137.589 7.94C137.562 7.79333 137.482 7.68667 137.349 7.62C137.229 7.55333 137.002 7.50667 136.669 7.48C136.469 7.46667 136.035 7.46 135.369 7.46C134.729 7.46 134.135 7.48667 133.589 7.54L132.529 7.6V5C133.782 4.76 135.135 4.64 136.589 4.64C137.709 4.64 138.582 4.72 139.209 4.88C139.849 5.04 140.329 5.29333 140.649 5.64C140.929 5.96 141.109 6.36667 141.189 6.86C141.282 7.35333 141.329 8.04 141.329 8.92V15H137.629V8.68ZM134.669 15.14C133.749 15.14 133.069 14.8867 132.629 14.38C132.189 13.86 131.969 13.08 131.969 12.04C131.969 11.4 132.015 10.8867 132.109 10.5C132.202 10.1 132.362 9.78667 132.589 9.56C132.815 9.32 133.129 9.15333 133.529 9.06C133.929 8.95333 134.455 8.9 135.109 8.9L136.789 8.94V10.72H136.589C136.282 10.72 136.082 10.7267 135.989 10.74C135.722 10.7533 135.582 10.88 135.569 11.12C135.555 11.2 135.549 11.3667 135.549 11.62C135.549 11.82 135.555 11.9733 135.569 12.08C135.595 12.1867 135.635 12.2733 135.689 12.34C135.755 12.4333 135.855 12.4867 135.989 12.5C136.175 12.5267 136.375 12.54 136.589 12.54H136.789V14.58C136.495 14.8067 136.182 14.9533 135.849 15.02C135.529 15.1 135.135 15.14 134.669 15.14ZM152.421 7.58C152.168 7.56667 151.821 7.53333 151.381 7.48C150.554 7.4 149.888 7.36 149.381 7.36H148.721V4.64C149.668 4.64 150.568 4.70667 151.421 4.84L152.421 5.02V7.58ZM149.521 11.9C149.521 11.7 149.488 11.5733 149.421 11.52C149.354 11.4667 149.214 11.4267 149.001 11.4L146.841 11.1C146.308 11.02 145.874 10.8933 145.541 10.72C145.221 10.5467 144.981 10.3133 144.821 10.02C144.661 9.76667 144.554 9.46 144.501 9.1C144.448 8.74 144.421 8.29333 144.421 7.76C144.421 6.66667 144.748 5.86667 145.401 5.36C145.948 4.96 146.774 4.72667 147.881 4.66V7.8C147.881 8 147.908 8.13333 147.961 8.2C148.014 8.25333 148.181 8.3 148.461 8.34L150.861 8.66C151.208 8.7 151.508 8.77333 151.761 8.88C152.014 8.97333 152.228 9.12 152.401 9.32C152.788 9.74667 152.981 10.5667 152.981 11.78C152.981 13.06 152.654 13.9533 152.001 14.46C151.428 14.8867 150.601 15.1133 149.521 15.14V11.9ZM148.681 15.16C147.614 15.1467 146.681 15.08 145.881 14.96L144.741 14.78V12.22C145.274 12.2733 145.994 12.3267 146.901 12.38C147.408 12.4067 147.768 12.42 147.981 12.42H148.681V15.16ZM160.342 8.9H161.742C161.742 8.15333 161.669 7.67333 161.522 7.46C161.442 7.34 161.335 7.26667 161.202 7.24C161.069 7.2 160.875 7.18 160.622 7.18H160.342V4.64H160.622C161.769 4.64 162.649 4.73333 163.262 4.92C163.889 5.10667 164.349 5.41333 164.642 5.84C164.909 6.21333 165.069 6.69333 165.122 7.28C165.189 7.86667 165.222 8.74667 165.222 9.92V10.72H160.342V8.9ZM161.022 15.16C159.795 15.16 158.829 15.06 158.122 14.86C157.429 14.6467 156.909 14.3133 156.562 13.86C156.255 13.46 156.055 12.9667 155.962 12.38C155.869 11.78 155.822 10.96 155.822 9.92C155.822 8.96 155.855 8.2 155.922 7.64C155.989 7.06667 156.129 6.58 156.342 6.18C156.582 5.74 156.949 5.4 157.442 5.16C157.949 4.90667 158.635 4.74667 159.502 4.68V10.72C159.502 11.1733 159.522 11.5 159.562 11.7C159.602 11.8867 159.695 12.0267 159.842 12.12C160.002 12.2267 160.249 12.2867 160.582 12.3C161.009 12.3267 161.462 12.34 161.942 12.34C162.795 12.34 163.415 12.32 163.802 12.28L164.822 12.2V14.78C164.289 14.94 163.555 15.0467 162.622 15.1C162.169 15.14 161.635 15.16 161.022 15.16Z" fill="url(#paint0_linear)"/>
<defs>
<linearGradient id="paint0_linear" x1="83.5" y1="-1" x2="83.5" y2="17" gradientUnits="userSpaceOnUse">
<stop stop-color="#00CDED"/>
<stop offset="1" stop-color="#008BA0"/>
</linearGradient>
</defs>
</svg>
